<?xml version="1.0" encoding="UTF-8" standalone="no"?>
<!-- Created with Inkscape (http://www.inkscape.org/) -->

<svg
   width="1024"
   height="1024"
   viewBox="0 0 270.93333 270.93333"
   version="1.1"
   id="svg1"
   xml:space="preserve"
   inkscape:version="1.3.1 (91b66b0783, 2023-11-16)"
   sodipodi:docname="logo.svg"
   inkscape:export-filename="../wwwroot/image/logo.png"
   inkscape:export-xdpi="12"
   inkscape:export-ydpi="12"
   xmlns:inkscape="http://www.inkscape.org/namespaces/inkscape"
   xmlns:sodipodi="http://sodipodi.sourceforge.net/DTD/sodipodi-0.dtd"
   xmlns="http://www.w3.org/2000/svg"
   xmlns:svg="http://www.w3.org/2000/svg"><sodipodi:namedview
     id="namedview1"
     pagecolor="#505050"
     bordercolor="#eeeeee"
     borderopacity="1"
     inkscape:showpageshadow="0"
     inkscape:pageopacity="0"
     inkscape:pagecheckerboard="0"
     inkscape:deskcolor="#505050"
     inkscape:document-units="px"
     showgrid="true"
     showguides="true"
     inkscape:zoom="0.5"
     inkscape:cx="345"
     inkscape:cy="561"
     inkscape:window-width="1920"
     inkscape:window-height="1043"
     inkscape:window-x="1920"
     inkscape:window-y="0"
     inkscape:window-maximized="1"
     inkscape:current-layer="svg1"><inkscape:grid
       id="grid4"
       units="px"
       originx="0"
       originy="0"
       spacingx="0.26458333"
       spacingy="0.26458333"
       empcolor="#0099e5"
       empopacity="0.30196078"
       color="#0099e5"
       opacity="0.14901961"
       empspacing="1"
       dotted="false"
       gridanglex="30"
       gridanglez="30"
       visible="true" /><sodipodi:guide
       position="-3.1749998,135.46667"
       orientation="0,-1"
       id="guide10"
       inkscape:locked="false" /><sodipodi:guide
       position="135.46666,279.4"
       orientation="1,0"
       id="guide11"
       inkscape:locked="false" /></sodipodi:namedview><defs
     id="defs1"><radialGradient
       fx="512.95898"
       fy="-188.123"
       cx="512.95898"
       cy="-188.123"
       r="1275.14"
       gradientUnits="userSpaceOnUse"
       gradientTransform="matrix(7.5,0,0,-7.5,10950,23122.5)"
       spreadMethod="pad"
       id="radialGradient3"><stop
         style="stop-opacity:1;stop-color:#d8ff00"
         offset="0"
         id="stop2" /><stop
         style="stop-opacity:1;stop-color:#37b400"
         offset="1"
         id="stop3" /></radialGradient><clipPath
       clipPathUnits="userSpaceOnUse"
       id="clipPath3"><path
         d="m 15198.7,21919.5 c -1458.2,-36.8 -2671.5,-539.3 -3639.8,-1507.6 -968.2,-968.3 -1470.8,-2181.5 -1507.6,-3639.8 0.5,-172.4 8.9,-342.3 25.2,-509.8 -0.1,6.8 -0.1,13.7 -0.1,20.5 36.5,1447.7 535.4,2652.2 1496.8,3613.5 961.2,961.3 2165.7,1460.3 3613.4,1496.8 1447.7,-36.5 2652.2,-535.5 3613.6,-1496.8 961.2,-961.3 1460.2,-2165.8 1496.7,-3613.5 l -24.6,-365.9 c 9.5,51.9 18.5,104.1 26.8,156.8 l 47,698.4 c -36.8,1458.3 -539.3,2671.5 -1507.7,3639.8 -968.2,968.3 -2181.5,1470.8 -3639.7,1507.6 z"
         id="path3" /></clipPath><radialGradient
       fx="568.71503"
       fy="681.79602"
       cx="568.71503"
       cy="681.79602"
       r="426.85501"
       gradientUnits="userSpaceOnUse"
       gradientTransform="matrix(7.5,0,0,-7.5,10950,23122.5)"
       spreadMethod="pad"
       id="radialGradient5"><stop
         style="stop-opacity:1;stop-color:#e9ff6e"
         offset="0"
         id="stop4" /><stop
         style="stop-opacity:1;stop-color:#37b400"
         offset="1"
         id="stop5" /></radialGradient><clipPath
       clipPathUnits="userSpaceOnUse"
       id="clipPath5"><path
         d="m 14723.7,19635.4 c 0,-411.8 0,-823.6 0,-1235.4 h -1235.3 v -444.6 -444.7 c 411.8,0 823.5,0 1235.3,0 v 0 c 0,-411.8 0,-823.6 0,-1235.3 296.5,0 592.9,0 889.4,0 0,411.7 0,823.5 0,1235.3 v 0 c 411.8,0 823.5,0 1235.3,0 0,296.4 0,592.9 0,889.3 h -1235.3 c 0,411.8 0,823.6 0,1235.4 z"
         id="path5" /></clipPath><linearGradient
       x1="829.33099"
       y1="430.694"
       x2="716.31799"
       y2="537.10699"
       gradientUnits="userSpaceOnUse"
       gradientTransform="matrix(7.5,0,0,-7.5,10950,23122.5)"
       spreadMethod="pad"
       id="linearGradient7"><stop
         style="stop-opacity:1;stop-color:#cfff00"
         offset="0"
         id="stop6" /><stop
         style="stop-opacity:1;stop-color:#2bae00"
         offset="1"
         id="stop7" /></linearGradient><clipPath
       clipPathUnits="userSpaceOnUse"
       id="clipPath7"><path
         d="m 17108.8,19828.7 c -0.2,0.3 -0.6,0.5 -1,0.6 -190.5,35.1 -394.6,-13.6 -552.3,-150.3 -168.2,-145.8 -244.6,-358 -224.3,-563.8 0.1,-0.4 0.2,-0.7 0.4,-0.9 0.2,-0.2 0.4,-0.4 0.7,-0.5 0.1,0 0.2,-0.1 0.3,-0.1 190.5,-35.2 394.6,13.5 552.4,150.2 168.1,145.9 244.6,358 224.2,563.8 0,0.4 -0.1,0.7 -0.4,1 z"
         id="path7" /></clipPath><linearGradient
       x1="813.47601"
       y1="937.04199"
       x2="723.25702"
       y2="832.96503"
       gradientUnits="userSpaceOnUse"
       gradientTransform="matrix(7.5,0,0,-7.5,10950,23122.5)"
       spreadMethod="pad"
       id="linearGradient9"><stop
         style="stop-opacity:1;stop-color:#d8ff00"
         offset="0"
         id="stop8" /><stop
         style="stop-opacity:1;stop-color:#37b400"
         offset="1"
         id="stop9" /></linearGradient><clipPath
       clipPathUnits="userSpaceOnUse"
       id="clipPath9"><path
         d="m 16336.6,16880.9 c -0.3,-0.3 -0.5,-0.6 -0.5,-1 -35.2,-190.5 13.5,-394.6 150.3,-552.3 145.8,-168.2 357.9,-244.6 563.7,-224.3 0.4,0.1 0.7,0.2 1,0.4 0.2,0.2 0.3,0.4 0.4,0.6 0.1,0.1 0.1,0.3 0.1,0.4 35.2,190.5 -13.4,394.6 -150.2,552.3 -145.8,168.2 -358,244.6 -563.8,224.3 -0.3,0 -0.7,-0.2 -1,-0.4 z"
         id="path9" /></clipPath><linearGradient
       x1="279.92001"
       y1="948.43201"
       x2="398.83301"
       y2="841.604"
       gradientUnits="userSpaceOnUse"
       gradientTransform="matrix(7.5,0,0,-7.5,10950,23122.5)"
       spreadMethod="pad"
       id="linearGradient11"><stop
         style="stop-opacity:1;stop-color:#d8ff00"
         offset="0"
         id="stop10" /><stop
         style="stop-opacity:1;stop-color:#49bd00"
         offset="1"
         id="stop11" /></linearGradient><clipPath
       clipPathUnits="userSpaceOnUse"
       id="clipPath11"><path
         d="m 13962.4,16849.5 c -0.2,0.3 -0.6,0.5 -1,0.6 -190.4,35.2 -394.6,-13.5 -552.3,-150.3 -168.1,-145.8 -244.6,-358 -224.2,-563.7 0,-0.4 0.1,-0.7 0.4,-1 0.1,-0.2 0.4,-0.3 0.6,-0.5 0.1,0 0.2,0 0.4,-0.1 190.5,-35.1 394.6,13.5 552.3,150.3 168.1,145.8 244.6,358 224.3,563.8 -0.1,0.3 -0.2,0.7 -0.4,0.9 z"
         id="path11" /></clipPath><linearGradient
       x1="302.23599"
       y1="442.60699"
       x2="396.54501"
       y2="549.849"
       gradientUnits="userSpaceOnUse"
       gradientTransform="matrix(7.5,0,0,-7.5,10950,23122.5)"
       spreadMethod="pad"
       id="linearGradient13"><stop
         style="stop-opacity:1;stop-color:#d8ff00"
         offset="0"
         id="stop12" /><stop
         style="stop-opacity:1;stop-color:#37b400"
         offset="1"
         id="stop13" /></linearGradient><clipPath
       clipPathUnits="userSpaceOnUse"
       id="clipPath13"><path
         d="m 13216.6,19760.9 c -0.3,-0.3 -0.5,-0.6 -0.5,-1 -35.2,-190.5 13.5,-394.6 150.3,-552.3 145.7,-168.2 357.9,-244.6 563.7,-224.3 0.4,0.1 0.7,0.2 1,0.4 0.2,0.2 0.3,0.4 0.4,0.6 0.1,0.1 0.1,0.3 0.1,0.4 35.2,190.5 -13.4,394.6 -150.2,552.3 -145.8,168.2 -358,244.6 -563.8,224.3 -0.3,0 -0.7,-0.2 -1,-0.4 z"
         id="path13" /></clipPath><radialGradient
       fx="-180.84599"
       fy="1637.11"
       cx="-180.84599"
       cy="1637.11"
       r="1513.26"
       gradientUnits="userSpaceOnUse"
       gradientTransform="matrix(7.5,0,0,-7.5,10950,23122.5)"
       spreadMethod="pad"
       id="radialGradient15"><stop
         style="stop-opacity:1;stop-color:#d8ff00"
         offset="0"
         id="stop14" /><stop
         style="stop-opacity:1;stop-color:#37b400"
         offset="1"
         id="stop15" /></radialGradient><clipPath
       clipPathUnits="userSpaceOnUse"
       id="clipPath15"><path
         d="m 13500,15555.9 c -1.6,0 -2.9,-1.4 -2.9,-3.1 0,-0.5 0.2,-0.9 0.4,-1.3 h -0.1 c 120.8,-356.1 249.3,-693 554.9,-895 327.6,-216.7 861.8,-281.2 1408,-346.3 14.8,-1.8 26.2,-13.8 27.2,-28.7 1.1,-14.8 -8.6,-28.3 -23,-32.1 l -3.4,-0.9 c -440.1,-115.5 -884.5,-232.1 -1328.2,-245.5 -120.6,-3.7 -241.2,0.3 -361.6,14 v 0 c -0.1,0 -0.2,0.1 -0.3,0.1 -110,12.5 -219.9,33.2 -329.7,63.5 -228.1,63.1 -455.1,168.1 -680.3,289.2 v -0.1 c -0.4,0.2 -0.9,0.4 -1.5,0.5 h 0.1 l 0.4,-0.1 c -7.4,0.9 -14.5,4.4 -19.8,10.4 0,0.1 0,0.1 0,0.1 v 0 c -0.3,0.4 -0.7,0.8 -1.2,1 -143.8,78.1 -287.1,162.4 -429.4,246.2 -1.7,1.1 -1.2,0.7 -2.7,1.6 v 0 c -0.1,0.1 -0.2,0.1 -0.3,0.2 -283.8,167.1 -564.5,332.3 -844.6,446.5 h -0.1 c 0,0.1 -0.1,0.1 -0.2,0.2 -291.4,118.7 -583.1,182.4 -875.3,215.8 l -0.1,-0.1 c 0,0.1 -0.1,0.1 -0.2,0.1 -327.7,37.3 -655.51,36.5 -985.12,32.2 -0.12,0 -0.2,0 -0.28,0 -0.93,0 -1.79,-0.4 -2.34,-1.2 -0.59,-0.7 -0.74,-1.7 -0.51,-2.6 0.2,-0.7 0.63,-1.3 1.21,-1.7 1524.14,-1238 3039.54,-2450.7 4613.24,-2630.1 0.1,-0.1 0.2,-0.1 0.3,-0.1 v 0 c 38.1,-4.3 76.1,-8 114.3,-11.1 139.6,-11.4 279.8,-14.5 420,-10.3 1320,39.9 2653.1,729.2 3693.4,1267.8 l 1.1,0.6 c 146.7,76 287.5,148.8 421.5,216.4 854.8,430.8 1429.2,641.7 1925.2,791.4 h -0.1 c 1.3,0.1 2.4,1.1 2.6,2.5 0.2,1.3 -0.4,2.6 -1.7,3.2 -666.4,316.9 -1334.4,620.6 -2118.5,710 -119.1,13.6 -240.9,22.2 -365.7,25.2 -81.5,1.9 -164.1,1.4 -247.9,-1.1 -553.6,-16.7 -1152.1,-123.7 -1710.9,-223.7 l -1,-0.1 v -0.1 l -8,-1.4 c -382.9,-68.5 -747.1,-133.5 -1062.7,-162.5 h -0.1 c -94.5,-8.6 -184.8,-14.1 -271.1,-16.7 -187.8,-5.7 -357.4,2.2 -513.7,20 h -0.1 c -0.1,0 -0.2,0 -0.3,0 -387,44.2 -691.5,149 -987.7,257 v 0 c -0.4,0.2 -0.7,0.2 -1.2,0.2 z"
         id="path15" /></clipPath><radialGradient
       fx="-180.84599"
       fy="1637.11"
       cx="-180.84599"
       cy="1637.11"
       r="1513.26"
       gradientUnits="userSpaceOnUse"
       gradientTransform="matrix(7.5,0,0,-7.5,10950,23122.5)"
       spreadMethod="pad"
       id="radialGradient17"><stop
         style="stop-opacity:1;stop-color:#d8ff00"
         offset="0"
         id="stop16" /><stop
         style="stop-opacity:1;stop-color:#37b400"
         offset="1"
         id="stop17" /></radialGradient><clipPath
       clipPathUnits="userSpaceOnUse"
       id="clipPath17"><path
         d="m 10732.3,16107.5 c -1.2,-0.1 -2.3,-0.9 -2.7,-2.1 -0.5,-1.2 0,-2.5 1,-3.3 133.7,-106.8 266.2,-220.7 377.6,-368.2 131.1,-173.7 232.4,-393.2 331.6,-609.5 0.4,-0.8 1.1,-1.3 2,-1.6 l 0.3,-0.1 c 3.9,-1.6 7.7,-3.2 11.7,-4.7 l -0.1,-0.1 c 284.9,-116 569.2,-283.5 851.9,-450 l 1.1,-0.6 h 0.1 c 91.6,-53.9 182.4,-107.5 273.7,-159.5 0.5,-0.3 1,-0.4 1.6,-0.4 0.5,0 1,0.2 1.5,0.5 0.9,0.5 1.4,1.5 1.4,2.7 0,0.6 -0.2,1.2 -0.6,1.7 -81.7,103.3 -166.9,229.5 -261.2,422.3 -25,51 -50.6,106.6 -77.3,164.5 v 0 0.2 -0.1 c -126.4,274.4 -276.1,597.9 -508,777 -257.9,199 -621.6,222.6 -1005.4,231.3 z"
         id="path17" /></clipPath><radialGradient
       fx="-180.84599"
       fy="1637.11"
       cx="-180.84599"
       cy="1637.11"
       r="1513.26"
       gradientUnits="userSpaceOnUse"
       gradientTransform="matrix(7.5,0,0,-7.5,10950,23122.5)"
       spreadMethod="pad"
       id="radialGradient19"><stop
         style="stop-opacity:1;stop-color:#d8ff00"
         offset="0"
         id="stop18" /><stop
         style="stop-opacity:1;stop-color:#37b400"
         offset="1"
         id="stop19" /></radialGradient><clipPath
       clipPathUnits="userSpaceOnUse"
       id="clipPath19"><path
         d="m 12070.4,16141.6 c -0.6,0 -1.1,-0.5 -1.1,-1.1 0,-0.2 0,-0.3 0.1,-0.5 v 0 c 25.3,-102.9 47.4,-206.3 49.6,-305.4 2.7,-118.4 -22.7,-229.9 -48.5,-338.8 -0.1,-0.4 0,-0.8 0.2,-1 v 0 c 71.2,-125.9 131.5,-256.7 185.8,-374.7 l 1.9,-4.2 c 26.8,-58.1 52.1,-113.1 76.7,-163.3 133.1,-271.7 246.4,-406.9 360,-537.1 0.3,-0.3 0.6,-0.4 1,-0.4 0.1,0 0.2,0 0.3,0.1 0.5,0.2 0.8,0.6 0.8,1.1 v 0 l -0.1,0.5 c -64.7,148.8 -124.4,302.8 -141.3,481.8 -6.4,67 -6.7,137.2 -7,208.4 v 0.5 c -0.6,149.1 -1.5,302.9 -54.6,450.3 -72.4,200.5 -242,391 -422.9,583.5 v 0 c -0.2,0.2 -0.6,0.4 -0.9,0.3 z"
         id="path19" /></clipPath><radialGradient
       fx="512.95898"
       fy="-188.123"
       cx="512.95898"
       cy="-188.123"
       r="1275.14"
       gradientUnits="userSpaceOnUse"
       gradientTransform="matrix(7.5,0,0,-7.5,10950,23122.5)"
       spreadMethod="pad"
       id="radialGradient3-9"><stop
         style="stop-opacity:1;stop-color:#d8ff00"
         offset="0"
         id="stop2-2" /><stop
         style="stop-opacity:1;stop-color:#37b400"
         offset="1"
         id="stop3-0" /></radialGradient><clipPath
       clipPathUnits="userSpaceOnUse"
       id="clipPath3-6"><path
         d="m 15198.7,21919.5 c -1458.2,-36.8 -2671.5,-539.3 -3639.8,-1507.6 -968.2,-968.3 -1470.8,-2181.5 -1507.6,-3639.8 0.5,-172.4 8.9,-342.3 25.2,-509.8 -0.1,6.8 -0.1,13.7 -0.1,20.5 36.5,1447.7 535.4,2652.2 1496.8,3613.5 961.2,961.3 2165.7,1460.3 3613.4,1496.8 1447.7,-36.5 2652.2,-535.5 3613.6,-1496.8 961.2,-961.3 1460.2,-2165.8 1496.7,-3613.5 l -24.6,-365.9 c 9.5,51.9 18.5,104.1 26.8,156.8 l 47,698.4 c -36.8,1458.3 -539.3,2671.5 -1507.7,3639.8 -968.2,968.3 -2181.5,1470.8 -3639.7,1507.6 z"
         id="path3-8" /></clipPath><radialGradient
       fx="568.71503"
       fy="681.79602"
       cx="568.71503"
       cy="681.79602"
       r="426.85501"
       gradientUnits="userSpaceOnUse"
       gradientTransform="matrix(7.5,0,0,-7.5,10950,23122.5)"
       spreadMethod="pad"
       id="radialGradient5-9"><stop
         style="stop-opacity:1;stop-color:#e9ff6e"
         offset="0"
         id="stop4-2" /><stop
         style="stop-opacity:1;stop-color:#37b400"
         offset="1"
         id="stop5-6" /></radialGradient><clipPath
       clipPathUnits="userSpaceOnUse"
       id="clipPath5-6"><path
         d="m 14723.7,19635.4 c 0,-411.8 0,-823.6 0,-1235.4 h -1235.3 v -444.6 -444.7 c 411.8,0 823.5,0 1235.3,0 v 0 c 0,-411.8 0,-823.6 0,-1235.3 296.5,0 592.9,0 889.4,0 0,411.7 0,823.5 0,1235.3 v 0 c 411.8,0 823.5,0 1235.3,0 0,296.4 0,592.9 0,889.3 h -1235.3 c 0,411.8 0,823.6 0,1235.4 z"
         id="path5-4" /></clipPath><linearGradient
       x1="829.33099"
       y1="430.694"
       x2="716.31799"
       y2="537.10699"
       gradientUnits="userSpaceOnUse"
       gradientTransform="matrix(7.5,0,0,-7.5,10950,23122.5)"
       spreadMethod="pad"
       id="linearGradient7-9"><stop
         style="stop-opacity:1;stop-color:#cfff00"
         offset="0"
         id="stop6-5" /><stop
         style="stop-opacity:1;stop-color:#2bae00"
         offset="1"
         id="stop7-0" /></linearGradient><clipPath
       clipPathUnits="userSpaceOnUse"
       id="clipPath7-4"><path
         d="m 17108.8,19828.7 c -0.2,0.3 -0.6,0.5 -1,0.6 -190.5,35.1 -394.6,-13.6 -552.3,-150.3 -168.2,-145.8 -244.6,-358 -224.3,-563.8 0.1,-0.4 0.2,-0.7 0.4,-0.9 0.2,-0.2 0.4,-0.4 0.7,-0.5 0.1,0 0.2,-0.1 0.3,-0.1 190.5,-35.2 394.6,13.5 552.4,150.2 168.1,145.9 244.6,358 224.2,563.8 0,0.4 -0.1,0.7 -0.4,1 z"
         id="path7-8" /></clipPath><linearGradient
       x1="813.47601"
       y1="937.04199"
       x2="723.25702"
       y2="832.96503"
       gradientUnits="userSpaceOnUse"
       gradientTransform="matrix(7.5,0,0,-7.5,10950,23122.5)"
       spreadMethod="pad"
       id="linearGradient9-7"><stop
         style="stop-opacity:1;stop-color:#d8ff00"
         offset="0"
         id="stop8-1" /><stop
         style="stop-opacity:1;stop-color:#37b400"
         offset="1"
         id="stop9-7" /></linearGradient><clipPath
       clipPathUnits="userSpaceOnUse"
       id="clipPath9-2"><path
         d="m 16336.6,16880.9 c -0.3,-0.3 -0.5,-0.6 -0.5,-1 -35.2,-190.5 13.5,-394.6 150.3,-552.3 145.8,-168.2 357.9,-244.6 563.7,-224.3 0.4,0.1 0.7,0.2 1,0.4 0.2,0.2 0.3,0.4 0.4,0.6 0.1,0.1 0.1,0.3 0.1,0.4 35.2,190.5 -13.4,394.6 -150.2,552.3 -145.8,168.2 -358,244.6 -563.8,224.3 -0.3,0 -0.7,-0.2 -1,-0.4 z"
         id="path9-7" /></clipPath><linearGradient
       x1="279.92001"
       y1="948.43201"
       x2="398.83301"
       y2="841.604"
       gradientUnits="userSpaceOnUse"
       gradientTransform="matrix(7.5,0,0,-7.5,10950,23122.5)"
       spreadMethod="pad"
       id="linearGradient11-2"><stop
         style="stop-opacity:1;stop-color:#d8ff00"
         offset="0"
         id="stop10-2" /><stop
         style="stop-opacity:1;stop-color:#49bd00"
         offset="1"
         id="stop11-6" /></linearGradient><clipPath
       clipPathUnits="userSpaceOnUse"
       id="clipPath11-1"><path
         d="m 13962.4,16849.5 c -0.2,0.3 -0.6,0.5 -1,0.6 -190.4,35.2 -394.6,-13.5 -552.3,-150.3 -168.1,-145.8 -244.6,-358 -224.2,-563.7 0,-0.4 0.1,-0.7 0.4,-1 0.1,-0.2 0.4,-0.3 0.6,-0.5 0.1,0 0.2,0 0.4,-0.1 190.5,-35.1 394.6,13.5 552.3,150.3 168.1,145.8 244.6,358 224.3,563.8 -0.1,0.3 -0.2,0.7 -0.4,0.9 z"
         id="path11-0" /></clipPath><linearGradient
       x1="302.23599"
       y1="442.60699"
       x2="396.54501"
       y2="549.849"
       gradientUnits="userSpaceOnUse"
       gradientTransform="matrix(7.5,0,0,-7.5,10950,23122.5)"
       spreadMethod="pad"
       id="linearGradient13-6"><stop
         style="stop-opacity:1;stop-color:#d8ff00"
         offset="0"
         id="stop12-1" /><stop
         style="stop-opacity:1;stop-color:#37b400"
         offset="1"
         id="stop13-5" /></linearGradient><clipPath
       clipPathUnits="userSpaceOnUse"
       id="clipPath13-9"><path
         d="m 13216.6,19760.9 c -0.3,-0.3 -0.5,-0.6 -0.5,-1 -35.2,-190.5 13.5,-394.6 150.3,-552.3 145.7,-168.2 357.9,-244.6 563.7,-224.3 0.4,0.1 0.7,0.2 1,0.4 0.2,0.2 0.3,0.4 0.4,0.6 0.1,0.1 0.1,0.3 0.1,0.4 35.2,190.5 -13.4,394.6 -150.2,552.3 -145.8,168.2 -358,244.6 -563.8,224.3 -0.3,0 -0.7,-0.2 -1,-0.4 z"
         id="path13-4" /></clipPath><radialGradient
       fx="-180.84599"
       fy="1637.11"
       cx="-180.84599"
       cy="1637.11"
       r="1513.26"
       gradientUnits="userSpaceOnUse"
       gradientTransform="matrix(7.5,0,0,-7.5,10950,23122.5)"
       spreadMethod="pad"
       id="radialGradient15-9"><stop
         style="stop-opacity:1;stop-color:#d8ff00"
         offset="0"
         id="stop14-0" /><stop
         style="stop-opacity:1;stop-color:#37b400"
         offset="1"
         id="stop15-9" /></radialGradient><clipPath
       clipPathUnits="userSpaceOnUse"
       id="clipPath15-1"><path
         d="m 13500,15555.9 c -1.6,0 -2.9,-1.4 -2.9,-3.1 0,-0.5 0.2,-0.9 0.4,-1.3 h -0.1 c 120.8,-356.1 249.3,-693 554.9,-895 327.6,-216.7 861.8,-281.2 1408,-346.3 14.8,-1.8 26.2,-13.8 27.2,-28.7 1.1,-14.8 -8.6,-28.3 -23,-32.1 l -3.4,-0.9 c -440.1,-115.5 -884.5,-232.1 -1328.2,-245.5 -120.6,-3.7 -241.2,0.3 -361.6,14 v 0 c -0.1,0 -0.2,0.1 -0.3,0.1 -110,12.5 -219.9,33.2 -329.7,63.5 -228.1,63.1 -455.1,168.1 -680.3,289.2 v -0.1 c -0.4,0.2 -0.9,0.4 -1.5,0.5 h 0.1 l 0.4,-0.1 c -7.4,0.9 -14.5,4.4 -19.8,10.4 0,0.1 0,0.1 0,0.1 v 0 c -0.3,0.4 -0.7,0.8 -1.2,1 -143.8,78.1 -287.1,162.4 -429.4,246.2 -1.7,1.1 -1.2,0.7 -2.7,1.6 v 0 c -0.1,0.1 -0.2,0.1 -0.3,0.2 -283.8,167.1 -564.5,332.3 -844.6,446.5 h -0.1 c 0,0.1 -0.1,0.1 -0.2,0.2 -291.4,118.7 -583.1,182.4 -875.3,215.8 l -0.1,-0.1 c 0,0.1 -0.1,0.1 -0.2,0.1 -327.7,37.3 -655.51,36.5 -985.12,32.2 -0.12,0 -0.2,0 -0.28,0 -0.93,0 -1.79,-0.4 -2.34,-1.2 -0.59,-0.7 -0.74,-1.7 -0.51,-2.6 0.2,-0.7 0.63,-1.3 1.21,-1.7 1524.14,-1238 3039.54,-2450.7 4613.24,-2630.1 0.1,-0.1 0.2,-0.1 0.3,-0.1 v 0 c 38.1,-4.3 76.1,-8 114.3,-11.1 139.6,-11.4 279.8,-14.5 420,-10.3 1320,39.9 2653.1,729.2 3693.4,1267.8 l 1.1,0.6 c 146.7,76 287.5,148.8 421.5,216.4 854.8,430.8 1429.2,641.7 1925.2,791.4 h -0.1 c 1.3,0.1 2.4,1.1 2.6,2.5 0.2,1.3 -0.4,2.6 -1.7,3.2 -666.4,316.9 -1334.4,620.6 -2118.5,710 -119.1,13.6 -240.9,22.2 -365.7,25.2 -81.5,1.9 -164.1,1.4 -247.9,-1.1 -553.6,-16.7 -1152.1,-123.7 -1710.9,-223.7 l -1,-0.1 v -0.1 l -8,-1.4 c -382.9,-68.5 -747.1,-133.5 -1062.7,-162.5 h -0.1 c -94.5,-8.6 -184.8,-14.1 -271.1,-16.7 -187.8,-5.7 -357.4,2.2 -513.7,20 h -0.1 c -0.1,0 -0.2,0 -0.3,0 -387,44.2 -691.5,149 -987.7,257 v 0 c -0.4,0.2 -0.7,0.2 -1.2,0.2 z"
         id="path15-7" /></clipPath><radialGradient
       fx="-180.84599"
       fy="1637.11"
       cx="-180.84599"
       cy="1637.11"
       r="1513.26"
       gradientUnits="userSpaceOnUse"
       gradientTransform="matrix(7.5,0,0,-7.5,10950,23122.5)"
       spreadMethod="pad"
       id="radialGradient17-7"><stop
         style="stop-opacity:1;stop-color:#d8ff00"
         offset="0"
         id="stop16-1" /><stop
         style="stop-opacity:1;stop-color:#37b400"
         offset="1"
         id="stop17-1" /></radialGradient><clipPath
       clipPathUnits="userSpaceOnUse"
       id="clipPath17-5"><path
         d="m 10732.3,16107.5 c -1.2,-0.1 -2.3,-0.9 -2.7,-2.1 -0.5,-1.2 0,-2.5 1,-3.3 133.7,-106.8 266.2,-220.7 377.6,-368.2 131.1,-173.7 232.4,-393.2 331.6,-609.5 0.4,-0.8 1.1,-1.3 2,-1.6 l 0.3,-0.1 c 3.9,-1.6 7.7,-3.2 11.7,-4.7 l -0.1,-0.1 c 284.9,-116 569.2,-283.5 851.9,-450 l 1.1,-0.6 h 0.1 c 91.6,-53.9 182.4,-107.5 273.7,-159.5 0.5,-0.3 1,-0.4 1.6,-0.4 0.5,0 1,0.2 1.5,0.5 0.9,0.5 1.4,1.5 1.4,2.7 0,0.6 -0.2,1.2 -0.6,1.7 -81.7,103.3 -166.9,229.5 -261.2,422.3 -25,51 -50.6,106.6 -77.3,164.5 v 0 0.2 -0.1 c -126.4,274.4 -276.1,597.9 -508,777 -257.9,199 -621.6,222.6 -1005.4,231.3 z"
         id="path17-9" /></clipPath><radialGradient
       fx="-180.84599"
       fy="1637.11"
       cx="-180.84599"
       cy="1637.11"
       r="1513.26"
       gradientUnits="userSpaceOnUse"
       gradientTransform="matrix(7.5,0,0,-7.5,10950,23122.5)"
       spreadMethod="pad"
       id="radialGradient19-7"><stop
         style="stop-opacity:1;stop-color:#d8ff00"
         offset="0"
         id="stop18-7" /><stop
         style="stop-opacity:1;stop-color:#37b400"
         offset="1"
         id="stop19-6" /></radialGradient><clipPath
       clipPathUnits="userSpaceOnUse"
       id="clipPath19-7"><path
         d="m 12070.4,16141.6 c -0.6,0 -1.1,-0.5 -1.1,-1.1 0,-0.2 0,-0.3 0.1,-0.5 v 0 c 25.3,-102.9 47.4,-206.3 49.6,-305.4 2.7,-118.4 -22.7,-229.9 -48.5,-338.8 -0.1,-0.4 0,-0.8 0.2,-1 v 0 c 71.2,-125.9 131.5,-256.7 185.8,-374.7 l 1.9,-4.2 c 26.8,-58.1 52.1,-113.1 76.7,-163.3 133.1,-271.7 246.4,-406.9 360,-537.1 0.3,-0.3 0.6,-0.4 1,-0.4 0.1,0 0.2,0 0.3,0.1 0.5,0.2 0.8,0.6 0.8,1.1 v 0 l -0.1,0.5 c -64.7,148.8 -124.4,302.8 -141.3,481.8 -6.4,67 -6.7,137.2 -7,208.4 v 0.5 c -0.6,149.1 -1.5,302.9 -54.6,450.3 -72.4,200.5 -242,391 -422.9,583.5 v 0 c -0.2,0.2 -0.6,0.4 -0.9,0.3 z"
         id="path19-3" /></clipPath></defs><path
     id="path2"
     d="m 15198.7,21919.5 c -1458.2,-36.8 -2671.5,-539.3 -3639.8,-1507.6 -968.2,-968.3 -1470.8,-2181.5 -1507.6,-3639.8 0.5,-172.4 8.9,-342.3 25.2,-509.8 -0.1,6.8 -0.1,13.7 -0.1,20.5 36.5,1447.7 535.4,2652.2 1496.8,3613.5 961.2,961.3 2165.7,1460.3 3613.4,1496.8 1447.7,-36.5 2652.2,-535.5 3613.6,-1496.8 961.2,-961.3 1460.2,-2165.8 1496.7,-3613.5 l -24.6,-365.9 c 9.5,51.9 18.5,104.1 26.8,156.8 l 47,698.4 c -36.8,1458.3 -539.3,2671.5 -1507.7,3639.8 -968.2,968.3 -2181.5,1470.8 -3639.7,1507.6 z"
     style="display:inline;fill:url(#radialGradient3-9);fill-opacity:1;fill-rule:nonzero;stroke:none"
     transform="matrix(0.02420584,0,0,-0.02420584,-232.32156,554.04511)"
     clip-path="url(#clipPath3-6)"
     inkscape:export-filename="logo.png"
     inkscape:export-xdpi="65.870003"
     inkscape:export-ydpi="65.870003" /><path
     id="path4"
     d="m 14723.7,19635.4 c 0,-411.8 0,-823.6 0,-1235.4 h -1235.3 v -444.6 -444.7 c 411.8,0 823.5,0 1235.3,0 v 0 c 0,-411.8 0,-823.6 0,-1235.3 296.5,0 592.9,0 889.4,0 0,411.7 0,823.5 0,1235.3 v 0 c 411.8,0 823.5,0 1235.3,0 0,296.4 0,592.9 0,889.3 h -1235.3 c 0,411.8 0,823.6 0,1235.4 z"
     style="fill:url(#radialGradient5-9);fill-opacity:1;fill-rule:nonzero;stroke:none"
     transform="matrix(0.02420584,0,0,-0.02420584,-232.32156,554.04511)"
     clip-path="url(#clipPath5-6)" /><path
     id="path6"
     d="m 17108.8,19828.7 c -0.2,0.3 -0.6,0.5 -1,0.6 -190.5,35.1 -394.6,-13.6 -552.3,-150.3 -168.2,-145.8 -244.6,-358 -224.3,-563.8 0.1,-0.4 0.2,-0.7 0.4,-0.9 0.2,-0.2 0.4,-0.4 0.7,-0.5 0.1,0 0.2,-0.1 0.3,-0.1 190.5,-35.2 394.6,13.5 552.4,150.2 168.1,145.9 244.6,358 224.2,563.8 0,0.4 -0.1,0.7 -0.4,1 z"
     style="fill:url(#linearGradient7-9);fill-opacity:1;fill-rule:nonzero;stroke:none"
     transform="matrix(0.02420584,0,0,-0.02420584,-232.32156,554.04511)"
     clip-path="url(#clipPath7-4)" /><path
     id="path8"
     d="m 16336.6,16880.9 c -0.3,-0.3 -0.5,-0.6 -0.5,-1 -35.2,-190.5 13.5,-394.6 150.3,-552.3 145.8,-168.2 357.9,-244.6 563.7,-224.3 0.4,0.1 0.7,0.2 1,0.4 0.2,0.2 0.3,0.4 0.4,0.6 0.1,0.1 0.1,0.3 0.1,0.4 35.2,190.5 -13.4,394.6 -150.2,552.3 -145.8,168.2 -358,244.6 -563.8,224.3 -0.3,0 -0.7,-0.2 -1,-0.4 z"
     style="fill:url(#linearGradient9-7);fill-opacity:1;fill-rule:nonzero;stroke:none"
     transform="matrix(0.02420584,0,0,-0.02420584,-232.32156,554.04511)"
     clip-path="url(#clipPath9-2)" /><path
     id="path10"
     d="m 13962.4,16849.5 c -0.2,0.3 -0.6,0.5 -1,0.6 -190.4,35.2 -394.6,-13.5 -552.3,-150.3 -168.1,-145.8 -244.6,-358 -224.2,-563.7 0,-0.4 0.1,-0.7 0.4,-1 0.1,-0.2 0.4,-0.3 0.6,-0.5 0.1,0 0.2,0 0.4,-0.1 190.5,-35.1 394.6,13.5 552.3,150.3 168.1,145.8 244.6,358 224.3,563.8 -0.1,0.3 -0.2,0.7 -0.4,0.9 z"
     style="fill:url(#linearGradient11-2);fill-opacity:1;fill-rule:nonzero;stroke:none"
     transform="matrix(0.02420584,0,0,-0.02420584,-232.32156,554.04511)"
     clip-path="url(#clipPath11-1)" /><path
     id="path12"
     d="m 13216.6,19760.9 c -0.3,-0.3 -0.5,-0.6 -0.5,-1 -35.2,-190.5 13.5,-394.6 150.3,-552.3 145.7,-168.2 357.9,-244.6 563.7,-224.3 0.4,0.1 0.7,0.2 1,0.4 0.2,0.2 0.3,0.4 0.4,0.6 0.1,0.1 0.1,0.3 0.1,0.4 35.2,190.5 -13.4,394.6 -150.2,552.3 -145.8,168.2 -358,244.6 -563.8,224.3 -0.3,0 -0.7,-0.2 -1,-0.4 z"
     style="fill:url(#linearGradient13-6);fill-opacity:1;fill-rule:nonzero;stroke:none"
     transform="matrix(0.02420584,0,0,-0.02420584,-232.32156,554.04511)"
     clip-path="url(#clipPath13-9)" /><path
     id="path14"
     d="m 13500,15555.9 c -1.6,0 -2.9,-1.4 -2.9,-3.1 0,-0.5 0.2,-0.9 0.4,-1.3 h -0.1 c 120.8,-356.1 249.3,-693 554.9,-895 327.6,-216.7 861.8,-281.2 1408,-346.3 14.8,-1.8 26.2,-13.8 27.2,-28.7 1.1,-14.8 -8.6,-28.3 -23,-32.1 l -3.4,-0.9 c -440.1,-115.5 -884.5,-232.1 -1328.2,-245.5 -120.6,-3.7 -241.2,0.3 -361.6,14 v 0 c -0.1,0 -0.2,0.1 -0.3,0.1 -110,12.5 -219.9,33.2 -329.7,63.5 -228.1,63.1 -455.1,168.1 -680.3,289.2 v -0.1 c -0.4,0.2 -0.9,0.4 -1.5,0.5 h 0.1 l 0.4,-0.1 c -7.4,0.9 -14.5,4.4 -19.8,10.4 0,0.1 0,0.1 0,0.1 v 0 c -0.3,0.4 -0.7,0.8 -1.2,1 -143.8,78.1 -287.1,162.4 -429.4,246.2 -1.7,1.1 -1.2,0.7 -2.7,1.6 v 0 c -0.1,0.1 -0.2,0.1 -0.3,0.2 -283.8,167.1 -564.5,332.3 -844.6,446.5 h -0.1 c 0,0.1 -0.1,0.1 -0.2,0.2 -291.4,118.7 -583.1,182.4 -875.3,215.8 l -0.1,-0.1 c 0,0.1 -0.1,0.1 -0.2,0.1 -327.7,37.3 -655.51,36.5 -985.12,32.2 -0.12,0 -0.2,0 -0.28,0 -0.93,0 -1.79,-0.4 -2.34,-1.2 -0.59,-0.7 -0.74,-1.7 -0.51,-2.6 0.2,-0.7 0.63,-1.3 1.21,-1.7 1524.14,-1238 3039.54,-2450.7 4613.24,-2630.1 0.1,-0.1 0.2,-0.1 0.3,-0.1 v 0 c 38.1,-4.3 76.1,-8 114.3,-11.1 139.6,-11.4 279.8,-14.5 420,-10.3 1320,39.9 2653.1,729.2 3693.4,1267.8 l 1.1,0.6 c 146.7,76 287.5,148.8 421.5,216.4 854.8,430.8 1429.2,641.7 1925.2,791.4 h -0.1 c 1.3,0.1 2.4,1.1 2.6,2.5 0.2,1.3 -0.4,2.6 -1.7,3.2 -666.4,316.9 -1334.4,620.6 -2118.5,710 -119.1,13.6 -240.9,22.2 -365.7,25.2 -81.5,1.9 -164.1,1.4 -247.9,-1.1 -553.6,-16.7 -1152.1,-123.7 -1710.9,-223.7 l -1,-0.1 v -0.1 l -8,-1.4 c -382.9,-68.5 -747.1,-133.5 -1062.7,-162.5 h -0.1 c -94.5,-8.6 -184.8,-14.1 -271.1,-16.7 -187.8,-5.7 -357.4,2.2 -513.7,20 h -0.1 c -0.1,0 -0.2,0 -0.3,0 -387,44.2 -691.5,149 -987.7,257 v 0 c -0.4,0.2 -0.7,0.2 -1.2,0.2 z"
     style="fill:url(#radialGradient15-9);fill-opacity:1;fill-rule:nonzero;stroke:none"
     transform="matrix(0.02420584,0,0,-0.02420584,-232.32156,554.04511)"
     clip-path="url(#clipPath15-1)" /><path
     id="path16"
     d="m 10732.3,16107.5 c -1.2,-0.1 -2.3,-0.9 -2.7,-2.1 -0.5,-1.2 0,-2.5 1,-3.3 133.7,-106.8 266.2,-220.7 377.6,-368.2 131.1,-173.7 232.4,-393.2 331.6,-609.5 0.4,-0.8 1.1,-1.3 2,-1.6 l 0.3,-0.1 c 3.9,-1.6 7.7,-3.2 11.7,-4.7 l -0.1,-0.1 c 284.9,-116 569.2,-283.5 851.9,-450 l 1.1,-0.6 h 0.1 c 91.6,-53.9 182.4,-107.5 273.7,-159.5 0.5,-0.3 1,-0.4 1.6,-0.4 0.5,0 1,0.2 1.5,0.5 0.9,0.5 1.4,1.5 1.4,2.7 0,0.6 -0.2,1.2 -0.6,1.7 -81.7,103.3 -166.9,229.5 -261.2,422.3 -25,51 -50.6,106.6 -77.3,164.5 v 0 0.2 -0.1 c -126.4,274.4 -276.1,597.9 -508,777 -257.9,199 -621.6,222.6 -1005.4,231.3 z"
     style="fill:url(#radialGradient17-7);fill-opacity:1;fill-rule:nonzero;stroke:none"
     transform="matrix(0.02420584,0,0,-0.02420584,-232.32156,554.04511)"
     clip-path="url(#clipPath17-5)" /><path
     id="path18"
     d="m 12070.4,16141.6 c -0.6,0 -1.1,-0.5 -1.1,-1.1 0,-0.2 0,-0.3 0.1,-0.5 v 0 c 25.3,-102.9 47.4,-206.3 49.6,-305.4 2.7,-118.4 -22.7,-229.9 -48.5,-338.8 -0.1,-0.4 0,-0.8 0.2,-1 v 0 c 71.2,-125.9 131.5,-256.7 185.8,-374.7 l 1.9,-4.2 c 26.8,-58.1 52.1,-113.1 76.7,-163.3 133.1,-271.7 246.4,-406.9 360,-537.1 0.3,-0.3 0.6,-0.4 1,-0.4 0.1,0 0.2,0 0.3,0.1 0.5,0.2 0.8,0.6 0.8,1.1 v 0 l -0.1,0.5 c -64.7,148.8 -124.4,302.8 -141.3,481.8 -6.4,67 -6.7,137.2 -7,208.4 v 0.5 c -0.6,149.1 -1.5,302.9 -54.6,450.3 -72.4,200.5 -242,391 -422.9,583.5 v 0 c -0.2,0.2 -0.6,0.4 -0.9,0.3 z"
     style="fill:url(#radialGradient19-7);fill-opacity:1;fill-rule:nonzero;stroke:none"
     transform="matrix(0.02420584,0,0,-0.02420584,-232.32156,554.04511)"
     clip-path="url(#clipPath19-7)" /></svg>
